<svg id="Layer_1" data-name="Layer 1" xmlns="http://www.w3.org/2000/svg" viewBox="0 0 87.88 82.59"><defs><style>.cls-1{fill:#231f20;}.cls-2{fill:#97e4ff;}</style></defs><title>iconos MENU RRHH</title><path class="cls-1" d="M43.83,56.8a17.23,17.23,0,0,1-8.37-2.17.69.69,0,1,1,.68-1.2,15.83,15.83,0,0,0,14.72.34A.69.69,0,0,1,51.47,55,17,17,0,0,1,43.83,56.8Z"/><polygon class="cls-1" points="47.62 53.67 50.8 54.59 49.89 57.77 51.63 56.81 52.54 53.62 49.36 52.71 47.62 53.67"/><path class="cls-1" d="M60.35,40.27a.69.69,0,0,1-.69-.69,15.86,15.86,0,0,0-2-7.75,16.15,16.15,0,0,0-5.35-5.64.69.69,0,0,1-.22-1A.69.69,0,0,1,53,25a17.19,17.19,0,0,1,8,14.55A.69.69,0,0,1,60.35,40.27Z"/><polygon class="cls-1" points="53.88 29.02 53.01 25.82 56.21 24.95 54.48 23.96 51.28 24.83 52.15 28.03 53.88 29.02"/><path class="cls-1" d="M27.38,38.69h-.07a.68.68,0,0,1-.62-.75,17.18,17.18,0,0,1,3-8.14,17.41,17.41,0,0,1,6.4-5.59.7.7,0,0,1,.63,1.24,15.92,15.92,0,0,0-5.89,5.13,15.73,15.73,0,0,0-2.73,7.49A.69.69,0,0,1,27.38,38.69Z"/><polygon class="cls-1" points="29.86 35.37 27.4 37.6 25.18 35.14 25.08 37.12 27.3 39.58 29.76 37.36 29.86 35.37"/><path class="cls-2" d="M48.69,22a4.86,4.86,0,1,1-4.86-4.85A4.86,4.86,0,0,1,48.69,22Z"/><path class="cls-1" d="M43.83,27.57A5.55,5.55,0,1,1,49.38,22,5.56,5.56,0,0,1,43.83,27.57Zm0-9.71A4.17,4.17,0,1,0,48,22,4.17,4.17,0,0,0,43.83,17.86Z"/><path class="cls-2" d="M48.8,33.37H38.86V31.91a5,5,0,0,1,5-5h0a5,5,0,0,1,5,5Z"/><path class="cls-1" d="M48.8,34.06H38.86a.69.69,0,0,1-.69-.69V31.91a5.66,5.66,0,0,1,11.32,0v1.46A.69.69,0,0,1,48.8,34.06Zm-9.25-1.38h8.56v-.77a4.28,4.28,0,1,0-8.56,0Z"/><path class="cls-2" d="M65.21,47.81A4.86,4.86,0,1,1,60.35,43,4.86,4.86,0,0,1,65.21,47.81Z"/><path class="cls-1" d="M60.35,53.35a5.55,5.55,0,1,1,5.55-5.54A5.55,5.55,0,0,1,60.35,53.35Zm0-9.71a4.17,4.17,0,1,0,4.17,4.17A4.17,4.17,0,0,0,60.35,43.64Z"/><path class="cls-2" d="M65.32,59.15H55.38V57.69a5,5,0,0,1,5-5h0a5,5,0,0,1,5,5Z"/><path class="cls-1" d="M65.32,59.85H55.38a.69.69,0,0,1-.69-.7V57.69a5.66,5.66,0,0,1,11.32,0v1.46A.69.69,0,0,1,65.32,59.85Zm-9.25-1.39h8.56v-.77a4.28,4.28,0,1,0-8.56,0Z"/><path class="cls-2" d="M32.79,47.81A4.86,4.86,0,1,1,27.94,43,4.85,4.85,0,0,1,32.79,47.81Z"/><path class="cls-1" d="M27.94,53.35a5.55,5.55,0,1,1,5.55-5.54A5.55,5.55,0,0,1,27.94,53.35Zm0-9.71a4.17,4.17,0,1,0,4.16,4.17A4.17,4.17,0,0,0,27.94,43.64Z"/><path class="cls-2" d="M32.91,59.15H23V57.69a5,5,0,0,1,5-5h0a5,5,0,0,1,5,5Z"/><path class="cls-1" d="M32.91,59.85H23a.69.69,0,0,1-.69-.7V57.69a5.66,5.66,0,0,1,11.32,0v1.46A.69.69,0,0,1,32.91,59.85Zm-9.25-1.39h8.56v-.77a4.28,4.28,0,1,0-8.56,0Z"/></svg>