<svg width="24" height="24" viewBox="0 0 24 24" fill="none" xmlns="http://www.w3.org/2000/svg">
<g clip-path="url(#clip0_248_7)">
<path d="M12 2C17.514 2 22 6.486 22 12C22 17.514 17.514 22 12 22C6.486 22 2 17.514 2 12C2 6.486 6.486 2 12 2ZM12 0C5.383 0 0 5.383 0 12C0 18.617 5.383 24 12 24C18.617 24 24 18.617 24 12C24 5.383 18.617 0 12 0ZM20.021 9.593C19.88 9.166 19.707 8.749 19.505 8.351L17.051 9.457C17.268 9.85 17.441 10.267 17.568 10.699L20.021 9.593ZM7.448 8.689C7.719 8.335 8.028 8.015 8.367 7.732L6.477 5.764C6.149 6.058 5.84 6.379 5.559 6.721L7.448 8.689ZM9.163 7.175C9.542 6.954 9.944 6.779 10.361 6.652L9.327 4.083C8.917 4.225 8.515 4.401 8.129 4.607L9.163 7.175ZM6.404 10.791C6.525 10.356 6.692 9.937 6.902 9.541L4.432 8.474C4.235 8.877 4.068 9.297 3.934 9.724L6.404 10.791ZM15.838 4.591C15.451 4.386 15.048 4.212 14.638 4.072L13.614 6.645C14.031 6.77 14.434 6.944 14.814 7.164L15.838 4.591ZM18.439 6.721C18.157 6.379 17.849 6.057 17.521 5.764L15.631 7.732C15.97 8.015 16.278 8.336 16.549 8.689L18.439 6.721ZM12.648 3.662C12.429 3.645 12.211 3.636 11.999 3.636C11.787 3.636 11.568 3.645 11.349 3.662V6.446C11.565 6.421 11.783 6.408 11.999 6.408C12.215 6.408 12.433 6.421 12.648 6.446V3.662ZM12 17.444C10.706 17.444 9.657 16.395 9.657 15.101C9.657 14.218 10.146 13.449 10.867 13.05L12 7.74L13.133 13.049C13.855 13.448 14.343 14.217 14.343 15.1C14.343 16.395 13.294 17.444 12 17.444Z" fill="white" stroke="black"/>
<circle cx="12" cy="15" r="3" fill="#7BFFF7"/>
<path d="M12 6L14.5981 13.5H9.40192L12 6Z" fill="#7BFFF7"/>
</g>
<defs>
<clipPath id="clip0_248_7">
<rect width="24" height="24" fill="white"/>
</clipPath>
</defs>
</svg>
