<svg id="Layer_1" data-name="Layer 1" xmlns="http://www.w3.org/2000/svg" viewBox="0 0 87.88 82.59"><defs><style>.cls-1{fill:#fff;}.cls-2{fill:#231f20;}.cls-3{fill:#97e4ff;}</style></defs><title>iconos MENU RRHH</title><path class="cls-1" d="M30.19,29.73h21.2a3,3,0,0,1,3,3V57.76a0,0,0,0,1,0,0H27.22a0,0,0,0,1,0,0V32.7A3,3,0,0,1,30.19,29.73Z"/><path class="cls-2" d="M54.37,58.45H27.22a.69.69,0,0,1-.69-.69V32.7A3.66,3.66,0,0,1,30.19,29h21.2a3.66,3.66,0,0,1,3.67,3.66V57.76A.69.69,0,0,1,54.37,58.45ZM27.91,57.06H53.68V32.7a2.29,2.29,0,0,0-2.29-2.28H30.19a2.28,2.28,0,0,0-2.28,2.28Z"/><path class="cls-2" d="M54.37,37.16H27.22a.69.69,0,0,1,0-1.38H54.37a.69.69,0,0,1,0,1.38Z"/><path class="cls-2" d="M30.83,30.23a.69.69,0,0,1-.69-.69v-4a.69.69,0,1,1,1.38,0v4A.69.69,0,0,1,30.83,30.23Z"/><path class="cls-2" d="M50.91,30.23a.69.69,0,0,1-.69-.69v-4a.69.69,0,0,1,1.38,0v4A.69.69,0,0,1,50.91,30.23Z"/><path class="cls-2" d="M54.37,43.76H27.22a.69.69,0,1,1,0-1.38H54.37a.69.69,0,0,1,0,1.38Z"/><path class="cls-2" d="M54.37,50.93H27.22a.7.7,0,0,1,0-1.39H54.37a.7.7,0,0,1,0,1.39Z"/><path class="cls-2" d="M36.05,58.45a.69.69,0,0,1-.69-.69V36.47a.69.69,0,1,1,1.38,0V57.76A.69.69,0,0,1,36.05,58.45Z"/><path class="cls-2" d="M45.52,58.45a.69.69,0,0,1-.69-.69V36.47a.7.7,0,0,1,1.39,0V57.76A.69.69,0,0,1,45.52,58.45Z"/><rect class="cls-1" x="36.05" y="43.07" width="9.47" height="7.17"/><path class="cls-2" d="M45.52,50.93H36.05a.69.69,0,0,1-.69-.69V43.07a.69.69,0,0,1,.69-.69h9.47a.69.69,0,0,1,.7.69v7.17A.69.69,0,0,1,45.52,50.93Zm-8.78-1.39h8.09V43.76H36.74Z"/><polygon class="cls-3" points="57.47 43.85 54.41 46.91 51.35 43.85 47.6 47.6 50.66 50.66 47.6 53.71 51.35 57.46 54.41 54.41 57.47 57.46 61.22 53.71 58.16 50.66 61.22 47.6 57.47 43.85"/><path class="cls-2" d="M61.6,54.1l-3.75,3.75a.55.55,0,0,1-.77,0l-2.67-2.67-2.67,2.67a.55.55,0,0,1-.77,0L47.22,54.1a.53.53,0,0,1,0-.77l2.67-2.67L47.22,48a.53.53,0,0,1,0-.77L51,43.46a.55.55,0,0,1,.77,0l2.67,2.67,2.67-2.67a.55.55,0,0,1,.77,0l3.75,3.75a.53.53,0,0,1,0,.77l-2.67,2.68,2.67,2.67A.53.53,0,0,1,61.6,54.1Zm-4.13,2.59,3-3L57.77,51a.55.55,0,0,1,0-.77l2.67-2.67-3-3L54.8,47.29a.54.54,0,0,1-.78,0l-2.67-2.67-3,3,2.67,2.67a.55.55,0,0,1,0,.77l-2.67,2.67,3,3L54,54a.54.54,0,0,1,.78,0Z"/></svg>