<svg id="Layer_1" data-name="Layer 1" xmlns="http://www.w3.org/2000/svg" viewBox="0 0 87.88 82.59"><defs><style>.cls-1{fill:#231f20;}.cls-2{fill:#97e4ff;}</style></defs><title>iconos MENU RRHH</title><path class="cls-1" d="M61.67,51.3H27.25a.69.69,0,0,1-.69-.69V24.35a.69.69,0,0,1,.69-.69H61.67a.69.69,0,0,1,.69.69V50.61A.69.69,0,0,1,61.67,51.3ZM27.94,49.92H61V25h-33Z"/><path class="cls-1" d="M61.67,61.53H27.25a.69.69,0,0,1-.69-.69V50.61a.69.69,0,0,1,.69-.69H61.67a.69.69,0,0,1,.69.69V60.84A.69.69,0,0,1,61.67,61.53ZM27.94,60.15H61V51.3h-33Z"/><path class="cls-1" d="M53,55H41.7a.69.69,0,1,1,0-1.38H53A.69.69,0,0,1,53,55Z"/><path class="cls-1" d="M57.18,57.89H41.7a.69.69,0,1,1,0-1.38H57.18a.69.69,0,1,1,0,1.38Z"/><path class="cls-2" d="M49.39,33.53A5.43,5.43,0,1,1,44,28.1,5.43,5.43,0,0,1,49.39,33.53Z"/><path class="cls-1" d="M44,39.64a6.12,6.12,0,1,1,6.12-6.11A6.12,6.12,0,0,1,44,39.64ZM44,28.8a4.73,4.73,0,1,0,4.73,4.73A4.73,4.73,0,0,0,44,28.8Z"/><path class="cls-2" d="M49.51,46.2H38.41V44.56A5.56,5.56,0,0,1,44,39h0a5.55,5.55,0,0,1,5.55,5.55Z"/><path class="cls-1" d="M49.51,46.89H38.41a.69.69,0,0,1-.69-.69V44.56a6.24,6.24,0,1,1,12.48,0V46.2A.69.69,0,0,1,49.51,46.89Zm-10.4-1.38h9.71v-.95a4.86,4.86,0,1,0-9.71,0Z"/><path class="cls-1" d="M34.7,59a.68.68,0,0,1-.31-.08s-3.2-1.71-3.2-3.68a2.18,2.18,0,0,1,2.16-2.33,2.54,2.54,0,0,1,1.35.48,2.58,2.58,0,0,1,1.36-.48,2.18,2.18,0,0,1,2.16,2.33c0,2-3.17,3.67-3.2,3.68A.61.61,0,0,1,34.7,59Zm-1.35-4.71c-.57,0-.78.51-.78.95,0,.68,1.27,1.74,2.13,2.27.89-.54,2.14-1.61,2.14-2.27,0-.44-.21-.95-.78-.95a1.61,1.61,0,0,0-.86.47.69.69,0,0,1-1,0A1.65,1.65,0,0,0,33.35,54.27Z"/></svg>