<svg id="Layer_1" data-name="Layer 1" xmlns="http://www.w3.org/2000/svg" viewBox="0 0 87.88 82.59"><defs><style>.cls-1{fill:none;}.cls-2{fill:#97e4ff;}.cls-3{fill:#231f20;}</style></defs><title>iconos MENU RRHH</title><path class="cls-1" d="M32.45,37.71V57.88h7.46v-12A1.12,1.12,0,0,1,41,44.8H47.9A1.11,1.11,0,0,1,49,45.91v12h7.47V37.71l-12-8.22Z"/><rect class="cls-2" x="42.14" y="47.03" width="4.63" height="10.86"/><polygon class="cls-2" points="53.27 32.81 56.48 35.01 56.48 29.66 53.27 29.66 53.27 32.81"/><path class="cls-3" d="M63.27,39.66l-4.56-3.13v-8a1.12,1.12,0,0,0-1.12-1.12H52.15A1.12,1.12,0,0,0,51,28.54v2.74L45.1,27.21a1.13,1.13,0,0,0-1.27,0L25.65,39.66a1.12,1.12,0,1,0,1.26,1.84l3.31-2.26V59a1.12,1.12,0,0,0,1.11,1.12H57.59A1.12,1.12,0,0,0,58.71,59V39.24L62,41.5a1.12,1.12,0,0,0,.63.2,1.09,1.09,0,0,0,.92-.49A1.11,1.11,0,0,0,63.27,39.66ZM46.78,57.88H42.14V47h4.64Zm9.7,0H49v-12A1.11,1.11,0,0,0,47.9,44.8H41a1.12,1.12,0,0,0-1.12,1.11v12H32.45V37.71l12-8.22,12,8.22Zm0-22.87-3.21-2.2V29.66h3.21Z"/></svg>