<svg id="Layer_1" data-name="Layer 1" xmlns="http://www.w3.org/2000/svg" viewBox="0 0 87.88 82.59"><defs><style>.cls-1{fill:#231f20;}.cls-2{fill:#fff;}</style></defs><title>iconos MENU RRHH</title><path class="cls-1" d="M58.09,63.29H44.43a4.72,4.72,0,0,1-4.71-4.7V31.25a4.72,4.72,0,0,1,4.71-4.7H58.09a4.72,4.72,0,0,1,4.71,4.7V58.59A4.72,4.72,0,0,1,58.09,63.29Zm-13.49-35a3.29,3.29,0,0,0-3.28,3.28V58.24a3.29,3.29,0,0,0,3.28,3.28H57.92a3.29,3.29,0,0,0,3.28-3.28V31.6a3.29,3.29,0,0,0-3.28-3.28Z"/><rect class="cls-2" x="34.26" y="36.82" width="12.12" height="16.12"/><path class="cls-1" d="M48.12,49.18H36.05v1.73a.75.75,0,0,1-.38.66.74.74,0,0,1-.76,0l-9.07-5.85a.74.74,0,0,1-.35-.63.72.72,0,0,1,.35-.62l9.07-5.85a.74.74,0,0,1,.76,0,.73.73,0,0,1,.38.65V41H48.12m-1.56,1.49H35.31a.76.76,0,0,1-.75-.75V40.58l-7,4.48,7,4.48V48.43a.75.75,0,0,1,.75-.74H46.56Z"/></svg>