<svg id="Layer_1" data-name="Layer 1" xmlns="http://www.w3.org/2000/svg" viewBox="0 0 87.88 82.59"><defs><style>.cls-1{fill:#231f20;}.cls-2{fill:#97e4ff;}</style></defs><title>iconos MENU RRHH</title><path class="cls-1" d="M60,54.23H26.55a.69.69,0,0,1-.69-.69v-23a.69.69,0,0,1,.69-.7H60a.69.69,0,0,1,.69.7V53.54A.69.69,0,0,1,60,54.23ZM27.24,52.85h32V31.18h-32Z"/><path class="cls-1" d="M43.26,46.16A.69.69,0,0,1,42.8,46L26.09,31a.68.68,0,0,1-.18-.76.69.69,0,0,1,.64-.45H60A.7.7,0,0,1,60.44,31L43.73,46A.71.71,0,0,1,43.26,46.16Zm-14.9-15,14.9,13.36L58.17,31.18Z"/><path class="cls-1" d="M26.55,54.23A.69.69,0,0,1,26.07,53l12.37-12a.7.7,0,0,1,1,1L27,54A.69.69,0,0,1,26.55,54.23Z"/><path class="cls-1" d="M60,54.23a.67.67,0,0,1-.48-.2l-12.38-12a.69.69,0,0,1,0-1,.68.68,0,0,1,1,0L60.46,53a.69.69,0,0,1,0,1A.67.67,0,0,1,60,54.23Z"/><circle class="cls-2" cx="59.98" cy="29.77" r="7.49" transform="translate(17.19 81.26) rotate(-76.67)"/><path class="cls-1" d="M60,38a8.19,8.19,0,1,1,8.18-8.18A8.19,8.19,0,0,1,60,38Zm0-15a6.81,6.81,0,1,0,6.8,6.81A6.82,6.82,0,0,0,60,23Z"/><path d="M61.35,33.24H59.27v-4c0-.49,0-.94,0-1.34a5.42,5.42,0,0,1-.48.49l-.86.71-1.07-1.31,2.61-2.13h1.85Z"/></svg>