<svg id="Layer_1" data-name="Layer 1" xmlns="http://www.w3.org/2000/svg" viewBox="0 0 87.88 82.59"><defs><style>.cls-1{fill:#fff;}.cls-2{fill:#231f20;}.cls-3{fill:#97e4ff;}.cls-4{fill:#9fd8f4;}</style></defs><title>iconos MENU RRHH</title><rect class="cls-1" x="27" y="22.97" width="30.67" height="37.15" rx="3.42"/><path class="cls-2" d="M54.25,60.81H30.42a4.12,4.12,0,0,1-4.11-4.12V26.39a4.11,4.11,0,0,1,4.11-4.11H54.25a4.12,4.12,0,0,1,4.11,4.11v30.3A4.12,4.12,0,0,1,54.25,60.81ZM30.42,23.66a2.73,2.73,0,0,0-2.73,2.73v30.3a2.73,2.73,0,0,0,2.73,2.73H54.25A2.73,2.73,0,0,0,57,56.69V26.39a2.74,2.74,0,0,0-2.73-2.73Z"/><path class="cls-3" d="M33,23V60.12H30.42A3.43,3.43,0,0,1,27,56.69V26.39A3.42,3.42,0,0,1,30.42,23Z"/><path class="cls-2" d="M33,60.81H30.42a4.12,4.12,0,0,1-4.11-4.12V26.39a4.11,4.11,0,0,1,4.11-4.11H33a.69.69,0,0,1,.69.69V60.12A.69.69,0,0,1,33,60.81ZM30.42,23.66a2.73,2.73,0,0,0-2.73,2.73v30.3a2.73,2.73,0,0,0,2.73,2.73h1.9V23.66Z"/><path class="cls-2" d="M29.09,29.39H25A.69.69,0,0,1,25,28h4.12a.69.69,0,0,1,0,1.38Z"/><path class="cls-2" d="M29.09,34.53H25a.69.69,0,0,1,0-1.38h4.12a.69.69,0,1,1,0,1.38Z"/><path class="cls-2" d="M29.09,39.67H25a.7.7,0,0,1,0-1.39h4.12a.7.7,0,0,1,0,1.39Z"/><path class="cls-2" d="M29.09,44.8H25a.69.69,0,0,1,0-1.38h4.12a.69.69,0,1,1,0,1.38Z"/><path class="cls-2" d="M29.09,49.94H25a.69.69,0,0,1,0-1.38h4.12a.69.69,0,1,1,0,1.38Z"/><path class="cls-2" d="M29.09,55.08H25a.7.7,0,0,1,0-1.39h4.12a.7.7,0,0,1,0,1.39Z"/><path class="cls-4" d="M43.48,51.28a.47.47,0,0,1-.46-.47V48.69a13.58,13.58,0,0,1-2.72-.77,13.42,13.42,0,0,1-2.93-1.66.47.47,0,0,1-.1-.64l2.08-3a.46.46,0,0,1,.31-.19h.07a.48.48,0,0,1,.28.1,17.66,17.66,0,0,0,2.09,1.4,7,7,0,0,0,1,.45V41.51a17.34,17.34,0,0,1-2-.7,7.12,7.12,0,0,1-1.84-1.19A4.64,4.64,0,0,1,38.21,38a5.34,5.34,0,0,1-.38-2.07,4.91,4.91,0,0,1,1.58-3.76A6.41,6.41,0,0,1,41.26,31,10.18,10.18,0,0,1,43,30.54V29.49a.47.47,0,0,1,.46-.47h3a.47.47,0,0,1,.47.47v1.12a10.78,10.78,0,0,1,2.08.61,11.73,11.73,0,0,1,2.32,1.28.46.46,0,0,1,.14.61L49.68,36.2a.46.46,0,0,1-.3.22h-.1a.42.42,0,0,1-.26-.08,14,14,0,0,0-1.66-1l-.56-.26v2.58a9.12,9.12,0,0,1,3.92,2,5.21,5.21,0,0,1-.17,7.42,6.27,6.27,0,0,1-1.84,1.13,8.06,8.06,0,0,1-1.79.49v2.07a.47.47,0,0,1-.47.47Zm3.32-6.82a.87.87,0,0,0,.42-.84,1.14,1.14,0,0,0-.21-.78l-.21-.18Zm-3.65-9.61L43,35a.82.82,0,0,0-.26.64,1,1,0,0,0,.21.71,1.49,1.49,0,0,0,.18.17Z"/><path class="cls-2" d="M46.45,29.49V31a10.36,10.36,0,0,1,2.38.65,10.88,10.88,0,0,1,2.23,1.23L49.28,36a14.82,14.82,0,0,0-1.71-1,7.6,7.6,0,0,0-1.24-.49V38a9.1,9.1,0,0,1,4.06,2,4.42,4.42,0,0,1,1.31,3.33v0a4.36,4.36,0,0,1-.4,1.88,4.3,4.3,0,0,1-1.07,1.49,5.81,5.81,0,0,1-1.7,1,7.84,7.84,0,0,1-2.08.52v2.47h-3V48.29a13,13,0,0,1-3-.8,13.24,13.24,0,0,1-2.81-1.6l2.08-3a16.2,16.2,0,0,0,2.15,1.43,5.62,5.62,0,0,0,1.74.64V41.16a17.55,17.55,0,0,1-2.29-.78,6.39,6.39,0,0,1-1.7-1.1,4.24,4.24,0,0,1-1-1.47,5,5,0,0,1-.35-1.91v0a4.5,4.5,0,0,1,1.44-3.37,6,6,0,0,1,1.7-1,8.86,8.86,0,0,1,2-.49V29.49h3m-2.83,7.77V34.2a1.42,1.42,0,0,0-.95.47,1.3,1.3,0,0,0-.37.95v.05a1.41,1.41,0,0,0,.33,1,2.25,2.25,0,0,0,1,.62m2.71,7.84a1.4,1.4,0,0,0,1.36-1.49v0a1.49,1.49,0,0,0-.34-1,2.53,2.53,0,0,0-1-.62V45.1m.12-16.54h-3a.92.92,0,0,0-.92.93v.67a10.81,10.81,0,0,0-1.45.41,6.9,6.9,0,0,0-2,1.22,5.75,5.75,0,0,0-1.29,1.79,5.65,5.65,0,0,0-.46,2.27,5.93,5.93,0,0,0,.43,2.32A5,5,0,0,0,39,40a7.05,7.05,0,0,0,2,1.27,17,17,0,0,0,1.74.64v1.81a3.14,3.14,0,0,1-.37-.18,16.27,16.27,0,0,1-2-1.36.88.88,0,0,0-.56-.19h-.15a.94.94,0,0,0-.62.39l-2.07,3a.93.93,0,0,0,.21,1.27,14.22,14.22,0,0,0,3,1.72,14.5,14.5,0,0,0,2.45.73v1.73a.93.93,0,0,0,.92.93h3a.93.93,0,0,0,.93-.93V49.13a8.39,8.39,0,0,0,1.5-.45,6.89,6.89,0,0,0,2-1.21,5.35,5.35,0,0,0,1.3-1.8,5.25,5.25,0,0,0,.47-2.26,5.35,5.35,0,0,0-1.59-4,9,9,0,0,0-3.77-2V35.82a15.4,15.4,0,0,1,1.5.92,1,1,0,0,0,.52.16l.21,0a.94.94,0,0,0,.6-.45l1.77-3.09a.93.93,0,0,0-.27-1.22,12.64,12.64,0,0,0-2.4-1.33,13,13,0,0,0-1.81-.56v-.74a.92.92,0,0,0-.93-.93Z"/><rect class="cls-1" x="56.18" y="37.98" width="5.29" height="15.55" transform="translate(-15.13 55) rotate(-45)"/><path class="cls-2" d="M62.46,54a.88.88,0,0,1-.62-.26l-11-11a.87.87,0,0,1-.26-.62.83.83,0,0,1,.26-.61l3.74-3.75a.87.87,0,0,1,1.23,0l11,11a.87.87,0,0,1,0,1.23l-3.74,3.74A.87.87,0,0,1,62.46,54ZM52.69,42.13l9.77,9.77L65,49.38,55.2,39.62Z"/><polygon class="cls-1" points="62.45 53.13 68.61 55.54 66.2 49.38 62.45 53.13"/><path class="cls-2" d="M68.61,56.41a.85.85,0,0,1-.31-.06l-6.16-2.41a.87.87,0,0,1-.3-1.43l3.74-3.74a.87.87,0,0,1,1.43.3l2.41,6.15a.88.88,0,0,1-.19.94A.9.9,0,0,1,68.61,56.41ZM64,52.8,67.08,54l-1.21-3.06Z"/><rect class="cls-1" x="52.41" y="39.55" width="5.29" height="4.86" transform="translate(-13.56 51.22) rotate(-45)"/><path class="cls-2" d="M54.9,46.44a.88.88,0,0,1-.62-.25l-3.43-3.44a.87.87,0,0,1-.26-.62.83.83,0,0,1,.26-.61l3.74-3.75a.87.87,0,0,1,1.23,0l3.44,3.44a.9.9,0,0,1,.25.62.86.86,0,0,1-.25.61l-3.74,3.75A.88.88,0,0,1,54.9,46.44Zm-2.21-4.31,2.21,2.21,2.51-2.51L55.2,39.62Z"/><path class="cls-2" d="M68.61,60.27H56.51a.87.87,0,0,1,0-1.74h12.1a.87.87,0,0,1,0,1.74Z"/></svg>