<svg id="Layer_1" data-name="Layer 1" xmlns="http://www.w3.org/2000/svg" viewBox="0 0 87.88 82.59"><defs><style>.cls-1{fill:#fff;}.cls-2{fill:#231f20;}.cls-3{fill:#97e4ff;}</style></defs><title>iconos MENU RRHH</title><path class="cls-1" d="M34,33.39a5.53,5.53,0,1,1-5.53-5.53A5.53,5.53,0,0,1,34,33.39Z"/><path class="cls-2" d="M28.5,39.61a6.22,6.22,0,1,1,6.22-6.22A6.22,6.22,0,0,1,28.5,39.61Zm0-11.06a4.84,4.84,0,1,0,4.84,4.84A4.84,4.84,0,0,0,28.5,28.55Z"/><path class="cls-1" d="M34.16,46.3H22.85V44.64A5.65,5.65,0,0,1,28.5,39h0a5.65,5.65,0,0,1,5.66,5.66Z"/><path class="cls-2" d="M34.16,47H22.85a.69.69,0,0,1-.69-.7V44.64a6.35,6.35,0,1,1,12.69,0V46.3A.69.69,0,0,1,34.16,47ZM23.54,45.61h9.93v-1a5,5,0,1,0-9.93,0Z"/><circle class="cls-3" cx="39.2" cy="29.4" r="7.23" transform="translate(2.02 61.31) rotate(-77.51)"/><path class="cls-2" d="M39.2,37.33a7.93,7.93,0,1,1,7.93-7.93A7.94,7.94,0,0,1,39.2,37.33Zm0-14.47a6.54,6.54,0,1,0,6.54,6.54A6.54,6.54,0,0,0,39.2,22.86Z"/><path class="cls-3" d="M46.6,46.3H31.8V44.12a7.4,7.4,0,0,1,7.4-7.4h0a7.4,7.4,0,0,1,7.4,7.4Z"/><path class="cls-2" d="M46.6,47H31.8a.7.7,0,0,1-.7-.7V44.12a8.1,8.1,0,0,1,16.19,0V46.3A.69.69,0,0,1,46.6,47ZM32.49,45.61H45.91V44.12a6.71,6.71,0,1,0-13.42,0Z"/><path class="cls-1" d="M41.22,40.81A8.27,8.27,0,1,0,52.89,40,8.27,8.27,0,0,0,41.22,40.81ZM51.7,49.9A5.61,5.61,0,1,1,51.14,42,5.61,5.61,0,0,1,51.7,49.9Z"/><path class="cls-2" d="M47.45,55.19A8.86,8.86,0,0,1,41.6,53a9,9,0,1,1,12.63-.89,8.86,8.86,0,0,1-6.13,3.06C47.88,55.18,47.67,55.19,47.45,55.19Zm0-16.54a5.15,5.15,0,0,0-.55,0,7.48,7.48,0,0,0-5.18,2.59h0A7.59,7.59,0,0,0,42.5,52a7.5,7.5,0,0,0,5,1.85,4.87,4.87,0,0,0,.54,0,7.58,7.58,0,0,0,7-8.09,7.56,7.56,0,0,0-7.55-7Zm0,13.87A6.3,6.3,0,0,1,42.71,42.1a6.29,6.29,0,1,1,5.2,10.41Zm0-11.21a4.91,4.91,0,1,0,3.22,1.2A4.93,4.93,0,0,0,47.47,41.31Z"/><path class="cls-1" d="M54.12,52l4.81,4.18Z"/><path class="cls-2" d="M58.93,56.87a.7.7,0,0,1-.45-.17l-4.81-4.18a.69.69,0,1,1,.9-1l4.81,4.17a.7.7,0,0,1,.07,1A.67.67,0,0,1,58.93,56.87Z"/><path class="cls-1" d="M65.08,61.58h0a1.49,1.49,0,0,1-2.1.15L57.51,57a1.49,1.49,0,0,1-.15-2.1h0a1.49,1.49,0,0,1,2.1-.14l5.47,4.74A1.49,1.49,0,0,1,65.08,61.58Z"/><path class="cls-2" d="M64,62.78a2.15,2.15,0,0,1-1.42-.53l-5.47-4.74a2.18,2.18,0,1,1,2.86-3.3L65.38,59A2.17,2.17,0,0,1,65.6,62h0A2.17,2.17,0,0,1,64,62.78Zm-5.46-7.72a.78.78,0,0,0-.6.28A.79.79,0,0,0,58,56.46l5.47,4.75A.8.8,0,0,0,64.48,60L59,55.26A.81.81,0,0,0,58.49,55.06Z"/><path class="cls-2" d="M56.53,36.84a.69.69,0,0,1-.69-.69V27.86a.69.69,0,0,1,1.38,0v8.29A.69.69,0,0,1,56.53,36.84Z"/><path class="cls-2" d="M60.67,32.7H52.38a.7.7,0,0,1,0-1.39h8.29a.7.7,0,0,1,0,1.39Z"/><path class="cls-2" d="M30.58,58.25a.69.69,0,0,1-.69-.69V51.43a.69.69,0,0,1,1.38,0v6.13A.69.69,0,0,1,30.58,58.25Z"/><path class="cls-2" d="M33.65,55.19H27.52a.7.7,0,0,1,0-1.39h6.13a.7.7,0,0,1,0,1.39Z"/></svg>