<svg width="64" height="50" viewBox="0 0 64 50" fill="none" xmlns="http://www.w3.org/2000/svg">
<path d="M31.1535 48.848C31.1589 48.8536 31.1676 48.8625 31.1795 48.8742C31.2058 48.8998 31.2465 48.9374 31.2996 48.9799C31.4079 49.0668 31.5551 49.1639 31.7236 49.2263C31.8889 49.2875 32.0647 49.312 32.2483 49.2718C32.4281 49.2324 32.6582 49.1216 32.921 48.8418L33.1817 48.5365L33.2477 48.4592L33.2519 48.4571L33.5239 48.139C33.5251 48.1376 33.5264 48.1359 33.528 48.1341M31.1535 48.848L33.528 48.1341M31.1535 48.848L30.707 48.2949L30.6983 48.2842L30.6891 48.2739C29.7951 47.284 26.9892 44.9101 20.714 44.9101H1.49599C0.973686 44.9101 0.550995 44.4875 0.550995 43.9661V11.4371C0.550995 10.8339 0.71283 10.5868 0.817224 10.4852C0.923549 10.3818 1.05146 10.3499 1.14661 10.3421H1.42499H1.45006L1.47499 10.3395C1.74017 10.3129 2.13025 10.2159 2.45326 9.88926C2.78274 9.55609 2.97199 9.05593 2.97199 8.36705V1.54205C2.97199 1.0802 3.34614 0.706055 3.80799 0.706055H24.865C27.9054 0.706055 29.3999 1.89724 29.9475 2.46692L30.3035 2.89609L31.0489 3.82581L31.0605 3.84036L31.0733 3.85399C31.211 4.00179 31.4905 4.25061 31.8874 4.28143C32.3302 4.31581 32.7245 4.07121 33.0462 3.62937L33.4369 3.09372L33.4828 3.03088L33.4843 3.02637L33.5584 2.92345C33.9316 2.45915 35.6427 0.706055 40.428 0.706055H60.193C60.6524 0.706055 61.027 1.07971 61.027 1.54205V8.45506V8.4658L61.0275 8.47653C61.0384 8.73084 61.0923 9.18106 61.3411 9.58103C61.6124 10.0171 62.0883 10.3462 62.8134 10.3421H62.8614M31.1535 48.848L62.8614 10.3421M33.528 48.1341C33.5559 48.1014 33.645 48.0029 33.7611 47.8839L33.7703 47.8745L33.7704 47.8746C34.8816 46.7938 37.5618 44.9101 42.699 44.9101H62.504C63.0271 44.9101 63.449 44.4877 63.449 43.9661V11.1221C63.449 10.6723 63.2964 10.5159 63.2044 10.4503C63.0843 10.3646 62.9365 10.3448 62.8614 10.3421M33.528 48.1341L62.8614 10.3421M33.1616 43.4675L33.1643 43.4639L33.2848 43.297L33.2893 43.2909L33.5433 42.9504L33.5519 42.9404C33.5639 42.9267 33.5842 42.9042 33.6132 42.874C33.6712 42.8137 33.7642 42.7227 33.895 42.6111C34.1566 42.388 34.5701 42.082 35.1603 41.773C36.3379 41.1565 38.234 40.5201 41.055 40.5201H57.35C58.2751 40.5201 59.051 39.7959 59.051 38.8621V4.19805C59.051 3.26548 58.2754 2.54005 57.35 2.54005H40.308C37.2252 2.54005 35.4104 3.82178 34.382 5.41843C33.3767 6.97929 33.1566 8.78605 33.1193 9.82411L33.1007 10.3421H33.127V34.6881C33.127 35.2763 32.9655 35.5469 32.8338 35.6773C32.6998 35.8099 32.5253 35.8679 32.3569 35.8881H31.7112C31.5635 35.8693 31.3826 35.8089 31.2304 35.6341C31.0676 35.4473 30.877 35.06 30.877 34.2591V10.1531V10.1432L30.8766 10.1334C30.8426 9.26911 30.5789 7.35671 29.0177 5.65831C27.4466 3.94908 24.6401 2.54106 19.693 2.54106H6.64999C5.7273 2.54106 4.95099 3.26675 4.95099 4.19906V38.8611C4.95099 39.7934 5.7273 40.5191 6.64999 40.5191H23.45C28.4046 40.5191 30.407 42.759 30.6257 43.0204L30.9975 43.4853L31.0148 43.507L31.0344 43.5266C31.0669 43.559 31.3348 43.8021 31.7066 43.9286C31.9003 43.9944 32.1526 44.0389 32.4249 43.9759C32.7078 43.9103 32.9607 43.7404 33.1616 43.4675ZM33.539 42.9554C33.539 42.9555 33.539 42.9554 33.5391 42.9553L33.539 42.9554Z" fill="#268DC7" stroke="black"/>
</svg>
