<svg width="48" height="48" viewBox="0 0 48 48" fill="none" xmlns="http://www.w3.org/2000/svg">
<path d="M31.5 22C31.5 21.1716 30.8284 20.5 30 20.5C29.1716 20.5 28.5 21.1716 28.5 22V33C28.5 33.8284 29.1716 34.5 30 34.5C30.8284 34.5 31.5 33.8284 31.5 33V22Z" fill="#2E3A59"/>
<path d="M18 20.5C18.8284 20.5 19.5 21.1716 19.5 22V33C19.5 33.8284 18.8284 34.5 18 34.5C17.1716 34.5 16.5 33.8284 16.5 33V22C16.5 21.1716 17.1716 20.5 18 20.5Z" fill="#2E3A59"/>
<path fill-rule="evenodd" clip-rule="evenodd" d="M14.8324 8.5H4C3.17157 8.5 2.5 9.17157 2.5 10C2.5 10.8284 3.17157 11.5 4 11.5H7V41C7 43.7614 9.23858 46 12 46H36C38.7614 46 41 43.7614 41 41V11.5H45C45.8284 11.5 46.5 10.8284 46.5 10C46.5 9.17157 45.8284 8.5 45 8.5H33.1676C32.0702 4.46616 28.3815 1.5 24 1.5C19.6185 1.5 15.9298 4.46616 14.8324 8.5ZM10 12H38V41C38 42.1046 37.1046 43 36 43H12C10.8954 43 10 42.1046 10 41V12ZM17.9982 8.5H30.0018C29.0223 6.15105 26.7039 4.5 24 4.5C21.2961 4.5 18.9777 6.15105 17.9982 8.5Z" fill="#2E3A59"/>
</svg>
